<mxfile host="65bd71144e">
    <diagram id="DFIYJp3z_NO6qhvURxCk" name="Page-1">
        <mxGraphModel dx="769" dy="363" grid="1" gridSize="10" guides="1" tooltips="1" connect="1" arrows="1" fold="1" page="1" pageScale="1" pageWidth="850" pageHeight="1100" math="0" shadow="0">
            <root>
                <mxCell id="0"/>
                <mxCell id="1" parent="0"/>
                <mxCell id="3" value="&lt;h1&gt;&lt;span style=&quot;background-color: initial;&quot;&gt;Why Multicasting&lt;/span&gt;&lt;/h1&gt;&lt;h1&gt;&lt;span style=&quot;background-color: initial; font-size: 12px; font-weight: normal;&quot;&gt;Recently I have noticed that instead of multicasting our messages to a list of destinations we loop through the targets and broadcast the socket messages in a threaded loop. This eats a lot of network bandwidth and could be easily offloaded to the routing layer via multicasting. Socket &quot;Rooms&quot; seem to be SocketIO's way of doing multicasting but more reaearch is required to make sure its actually taking advantage of the routing layer via multicast.&lt;/span&gt;&lt;br&gt;&lt;/h1&gt;" style="text;html=1;strokeColor=none;fillColor=none;spacing=5;spacingTop=-20;whiteSpace=wrap;overflow=hidden;rounded=0;" vertex="1" parent="1">
                    <mxGeometry x="120" y="110" width="320" height="330" as="geometry"/>
                </mxCell>
            </root>
        </mxGraphModel>
    </diagram>
</mxfile>